<svg width="16.8" height="16.8" viewBox="0 0 24 24" aria-hidden="true"
     xmlns="http://www.w3.org/2000/svg">
  <defs>
    <clipPath id="moon-in-scorpio">
      <rect x="0" y="0" width="16.4" height="24" />
    </clipPath>
  </defs>

  <path
    clip-path="url(#moon-in-scorpio)"
    fill="#F97316"
    stroke="none"
    fill-rule="evenodd"
    d="M12 3a9 9 0 1 0 0 18a9 9 0 1 0 0-18z
       M14 3.8a8.2 8.2 0 1 1 0 16.4a8.2 8.2 0 1 1 0-16.4z"
  />

  <g
    fill="none"
    stroke="#991B1B"
    stroke-linecap="round"
    stroke-linejoin="round"
    transform="translate(12.0 8.2) scale(1.3225)"
  >
    <path d="M0.2 4l-1.2-0.6 0.7-1 1.2 0.6" stroke-width="1.2" />
    <path d="M6.2 4l1.2-0.6-0.7-1-1.2 0.6" stroke-width="1.2" />
    <path d="M0.9 4.6c1.4 1 3.4 1 4.8 0" stroke-width="1.2" />
    <path d="M2.0 5.6 L0.8 6.4" stroke-width="0.48" />
    <path d="M0.8 6.4 L2.0 7.2" stroke-width="0.24" />
    <path d="M4.2 5.6 L5.4 6.4" stroke-width="0.48" />
    <path d="M5.4 6.4 L4.2 7.2" stroke-width="0.24" />
    <path d="M3 4.2c1-1.1 1.2-2.6 0.2-4" stroke-width="1.2" />
    <path d="M3.2 0.2l1-0.7" stroke-width="1.2" />
  </g>
</svg>
